<svg xmlns="http://www.w3.org/2000/svg" viewBox="0 0 760 760" width="760" height="760" role="img" aria-label="ba-yorkie-before">
  <defs>
    <linearGradient id="bg-ba-yorkie-before" x1="0" y1="0" x2="1" y2="1">
      <stop offset="0" stop-color="#52806B"/><stop offset="1" stop-color="#558F73"/>
    </linearGradient>
    <clipPath id="clip-ba-yorkie-before"><rect width="760" height="760"/></clipPath>
  </defs>
  <g clip-path="url(#clip-ba-yorkie-before)">
    <rect width="760" height="760" fill="url(#bg-ba-yorkie-before)"/>
    <circle cx="49" cy="743" r="198" fill="none" stroke="#FFFFFF" stroke-width="2.7" opacity=".14"/><circle cx="49" cy="743" r="327" fill="none" stroke="#FFFFFF" stroke-width="2.7" opacity=".14"/><circle cx="49" cy="743" r="456" fill="none" stroke="#FFFFFF" stroke-width="2.7" opacity=".14"/><circle cx="49" cy="743" r="585" fill="none" stroke="#FFFFFF" stroke-width="2.7" opacity=".14"/>
    <circle cx="478" cy="185" r="416" fill="#FFFFFF" opacity=".09"/>
    <g transform="translate(213.4 180.6) scale(3.4960)" opacity=".92">
      <g fill="none" stroke="#FFFFFF" stroke-width="6.2" stroke-linecap="round" stroke-linejoin="round"><path d="M50 14 C54 38 62 46 86 50 C62 54 54 62 50 86 C46 62 38 54 14 50 C38 46 46 38 50 14 Z"/></g>
    </g>
    <rect x="566" y="68" width="125" height="125" rx="38" fill="#AB7962"/>
    <g transform="translate(566.2 68.4) scale(1.2540)"><path d="M50 81.5 C37.5 81.5 27.5 74.8 27.5 66.2 C27.5 58.3 37.5 53.5 50 53.5 C62.5 53.5 72.5 58.3 72.5 66.2 C72.5 74.8 62.5 81.5 50 81.5 Z" fill="#FFFFFF"/><ellipse cx="27.5" cy="43.5" rx="8.0" ry="10.6" fill="#FFFFFF" transform="rotate(-22 27.5 43.5)"/><ellipse cx="42.0" cy="34.5" rx="8.6" ry="11.6" fill="#FFFFFF" transform="rotate(-8 42.0 34.5)"/><ellipse cx="58.0" cy="34.5" rx="8.6" ry="11.6" fill="#FFFFFF" transform="rotate(8 58.0 34.5)"/><ellipse cx="72.5" cy="43.5" rx="8.0" ry="10.6" fill="#FFFFFF" transform="rotate(22 72.5 43.5)"/><path d="M50 75.5 C44.2 71.1 40.5 68.0 40.5 64.4 C40.5 61.7 42.6 60.1 44.9 60.1 C46.8 60.1 48.5 61.2 50 62.9 C51.5 61.2 53.2 60.1 55.1 60.1 C57.4 60.1 59.5 61.7 59.5 64.4 C59.5 68.0 55.8 71.1 50 75.5 Z" fill="#AB7962"/></g>
    
    <g fill="#FFFFFF" opacity="0.05"><circle cx="29.3" cy="529.1" r="0.9"/><circle cx="351.5" cy="510.5" r="2.0"/><circle cx="344.4" cy="378.7" r="0.6"/><circle cx="328.6" cy="283.0" r="2.1"/><circle cx="415.7" cy="574.0" r="1.4"/><circle cx="133.9" cy="646.7" r="2.1"/><circle cx="285.7" cy="72.8" r="1.5"/><circle cx="376.9" cy="586.9" r="1.7"/><circle cx="385.1" cy="437.1" r="1.3"/><circle cx="37.2" cy="46.5" r="2.3"/><circle cx="637.7" cy="225.1" r="2.2"/><circle cx="396.9" cy="78.3" r="2.1"/><circle cx="444.1" cy="708.9" r="1.8"/><circle cx="71.5" cy="473.3" r="2.0"/><circle cx="683.2" cy="251.8" r="1.6"/><circle cx="532.9" cy="126.8" r="2.1"/><circle cx="593.5" cy="38.1" r="1.7"/><circle cx="279.7" cy="141.4" r="1.7"/><circle cx="736.6" cy="419.5" r="0.8"/><circle cx="376.1" cy="592.1" r="2.3"/><circle cx="543.5" cy="31.4" r="2.3"/><circle cx="457.4" cy="63.6" r="0.8"/><circle cx="65.5" cy="505.3" r="0.9"/><circle cx="613.7" cy="82.8" r="1.6"/><circle cx="336.7" cy="28.9" r="0.6"/><circle cx="686.7" cy="742.2" r="0.8"/><circle cx="558.3" cy="751.8" r="2.2"/><circle cx="672.6" cy="256.6" r="1.9"/><circle cx="378.6" cy="712.4" r="1.9"/><circle cx="641.2" cy="651.5" r="1.3"/><circle cx="541.4" cy="70.6" r="1.0"/><circle cx="711.8" cy="307.5" r="1.8"/><circle cx="437.5" cy="197.8" r="1.7"/><circle cx="693.5" cy="248.8" r="1.2"/><circle cx="141.2" cy="135.2" r="2.1"/><circle cx="536.7" cy="733.4" r="1.8"/><circle cx="728.7" cy="168.7" r="0.9"/><circle cx="164.6" cy="291.7" r="2.4"/><circle cx="170.9" cy="348.3" r="0.7"/><circle cx="20.7" cy="414.8" r="1.7"/><circle cx="388.2" cy="695.2" r="2.1"/><circle cx="722.9" cy="440.0" r="1.1"/><circle cx="98.8" cy="580.8" r="0.9"/><circle cx="4.6" cy="531.4" r="0.8"/><circle cx="473.1" cy="152.8" r="1.4"/><circle cx="11.2" cy="285.9" r="1.2"/><circle cx="198.5" cy="101.7" r="1.6"/><circle cx="526.4" cy="151.8" r="0.7"/><circle cx="203.9" cy="531.5" r="1.1"/><circle cx="492.1" cy="55.9" r="1.9"/><circle cx="108.1" cy="169.7" r="1.9"/><circle cx="361.0" cy="486.7" r="1.1"/><circle cx="508.0" cy="227.3" r="1.5"/><circle cx="337.5" cy="693.3" r="2.0"/><circle cx="416.9" cy="642.5" r="1.7"/><circle cx="550.1" cy="393.7" r="1.6"/><circle cx="162.4" cy="707.3" r="1.8"/><circle cx="622.9" cy="460.8" r="0.6"/><circle cx="82.2" cy="670.2" r="1.9"/><circle cx="687.3" cy="679.1" r="1.0"/><circle cx="748.7" cy="464.1" r="1.9"/><circle cx="392.6" cy="194.7" r="1.5"/><circle cx="351.2" cy="225.9" r="1.2"/><circle cx="336.6" cy="202.7" r="0.9"/><circle cx="611.3" cy="272.2" r="1.3"/><circle cx="595.4" cy="530.7" r="1.4"/><circle cx="235.3" cy="605.0" r="1.0"/><circle cx="351.9" cy="284.6" r="2.4"/><circle cx="182.3" cy="451.0" r="1.5"/><circle cx="37.0" cy="138.0" r="2.2"/><circle cx="599.4" cy="162.3" r="0.9"/><circle cx="713.2" cy="447.4" r="1.9"/><circle cx="689.4" cy="198.3" r="1.5"/><circle cx="694.4" cy="141.5" r="1.1"/><circle cx="670.1" cy="639.6" r="1.5"/><circle cx="101.6" cy="633.3" r="1.2"/><circle cx="575.6" cy="193.7" r="0.9"/><circle cx="526.8" cy="298.8" r="1.3"/><circle cx="333.8" cy="349.0" r="1.4"/><circle cx="492.7" cy="81.0" r="1.8"/><circle cx="369.9" cy="621.9" r="1.1"/><circle cx="506.8" cy="156.2" r="1.9"/><circle cx="517.4" cy="413.3" r="1.5"/><circle cx="722.3" cy="272.6" r="0.7"/><circle cx="251.6" cy="32.6" r="2.2"/><circle cx="634.6" cy="140.7" r="1.7"/><circle cx="155.8" cy="649.8" r="1.3"/><circle cx="44.9" cy="482.4" r="0.8"/><circle cx="679.7" cy="705.5" r="1.7"/><circle cx="185.9" cy="588.7" r="0.7"/><circle cx="84.3" cy="231.2" r="0.7"/><circle cx="664.0" cy="507.9" r="2.1"/><circle cx="499.4" cy="170.6" r="1.1"/><circle cx="462.1" cy="601.4" r="1.7"/><circle cx="244.1" cy="607.8" r="1.3"/><circle cx="477.2" cy="645.8" r="1.8"/><circle cx="349.2" cy="448.9" r="1.0"/><circle cx="332.0" cy="632.9" r="1.5"/><circle cx="12.8" cy="619.0" r="0.9"/><circle cx="24.7" cy="439.7" r="2.0"/><circle cx="85.4" cy="337.3" r="1.4"/><circle cx="93.4" cy="478.1" r="1.1"/><circle cx="525.5" cy="382.1" r="1.5"/><circle cx="175.7" cy="580.1" r="0.6"/><circle cx="238.0" cy="77.8" r="0.8"/><circle cx="8.3" cy="397.5" r="0.7"/><circle cx="86.7" cy="328.7" r="1.8"/><circle cx="153.8" cy="499.2" r="1.6"/><circle cx="702.5" cy="615.8" r="2.4"/><circle cx="271.5" cy="672.8" r="1.2"/><circle cx="215.0" cy="323.4" r="0.6"/><circle cx="549.7" cy="67.3" r="1.7"/><circle cx="44.8" cy="324.7" r="1.1"/><circle cx="718.3" cy="226.8" r="1.2"/><circle cx="233.3" cy="95.0" r="1.8"/><circle cx="230.0" cy="206.0" r="1.2"/><circle cx="268.3" cy="603.0" r="1.0"/><circle cx="94.1" cy="251.3" r="1.6"/><circle cx="214.7" cy="83.3" r="1.2"/><circle cx="730.2" cy="680.9" r="1.4"/><circle cx="329.0" cy="131.9" r="1.8"/><circle cx="548.2" cy="196.4" r="1.7"/><circle cx="77.5" cy="239.3" r="1.1"/><circle cx="605.5" cy="469.9" r="1.5"/><circle cx="332.6" cy="419.4" r="1.5"/><circle cx="195.8" cy="631.4" r="2.0"/><circle cx="293.8" cy="306.0" r="2.3"/><circle cx="15.6" cy="582.0" r="0.9"/><circle cx="144.6" cy="265.9" r="1.7"/><circle cx="243.2" cy="393.4" r="1.5"/><circle cx="699.3" cy="440.3" r="1.1"/><circle cx="481.1" cy="422.7" r="1.1"/><circle cx="550.5" cy="6.9" r="2.4"/><circle cx="664.0" cy="46.1" r="1.9"/><circle cx="99.1" cy="752.8" r="1.4"/><circle cx="566.8" cy="194.4" r="1.8"/><circle cx="21.9" cy="607.3" r="1.1"/><circle cx="130.9" cy="335.3" r="1.5"/><circle cx="35.0" cy="126.8" r="1.3"/><circle cx="413.6" cy="531.9" r="0.8"/></g>
  </g>
</svg>