<svg xmlns="http://www.w3.org/2000/svg" viewBox="0 0 900 640" width="900" height="640" role="img" aria-label="facility-floor.svg">
  <defs>
    <linearGradient id="bg-facility-floor-svg" x1="0" y1="0" x2="1" y2="1">
      <stop offset="0" stop-color="#D8500A"/><stop offset="1" stop-color="#F4681B"/>
    </linearGradient>
    <clipPath id="clip-facility-floor-svg"><rect width="900" height="640"/></clipPath>
  </defs>
  <g clip-path="url(#clip-facility-floor-svg)">
    <rect width="900" height="640" fill="url(#bg-facility-floor-svg)"/>
    <circle cx="107" cy="613" r="166" fill="none" stroke="#FFFFFF" stroke-width="2.2" opacity=".14"/><circle cx="107" cy="613" r="275" fill="none" stroke="#FFFFFF" stroke-width="2.2" opacity=".14"/><circle cx="107" cy="613" r="384" fill="none" stroke="#FFFFFF" stroke-width="2.2" opacity=".14"/><circle cx="107" cy="613" r="493" fill="none" stroke="#FFFFFF" stroke-width="2.2" opacity=".14"/>
    <circle cx="686" cy="139" r="314" fill="#FFFFFF" opacity=".09"/>
    <g transform="translate(314.9 152.1) scale(2.9440)" opacity=".92">
      <g fill="none" stroke="#FFFFFF" stroke-width="6.2" stroke-linecap="round" stroke-linejoin="round"><path d="M16 34 H84 a6 6 0 0 1 6 6 v6 H10 v-6 a6 6 0 0 1 6-6 Z"/><path d="M20 52 V80 M32 52 V84 M44 52 V80 M56 52 V84 M68 52 V80 M80 52 V84"/></g>
    </g>
    <rect x="737" y="58" width="106" height="106" rx="32" fill="#0A2472"/>
    <g transform="translate(736.8 57.6) scale(1.0560)"><path d="M50 81.5 C37.5 81.5 27.5 74.8 27.5 66.2 C27.5 58.3 37.5 53.5 50 53.5 C62.5 53.5 72.5 58.3 72.5 66.2 C72.5 74.8 62.5 81.5 50 81.5 Z" fill="#FFFFFF"/><ellipse cx="27.5" cy="43.5" rx="8.0" ry="10.6" fill="#FFFFFF" transform="rotate(-22 27.5 43.5)"/><ellipse cx="42.0" cy="34.5" rx="8.6" ry="11.6" fill="#FFFFFF" transform="rotate(-8 42.0 34.5)"/><ellipse cx="58.0" cy="34.5" rx="8.6" ry="11.6" fill="#FFFFFF" transform="rotate(8 58.0 34.5)"/><ellipse cx="72.5" cy="43.5" rx="8.0" ry="10.6" fill="#FFFFFF" transform="rotate(22 72.5 43.5)"/><path d="M50 75.5 C44.2 71.1 40.5 68.0 40.5 64.4 C40.5 61.7 42.6 60.1 44.9 60.1 C46.8 60.1 48.5 61.2 50 62.9 C51.5 61.2 53.2 60.1 55.1 60.1 C57.4 60.1 59.5 61.7 59.5 64.4 C59.5 68.0 55.8 71.1 50 75.5 Z" fill="#0A2472"/></g>
    
    <g fill="#FFFFFF" opacity="0.05"><circle cx="445.0" cy="356.3" r="2.1"/><circle cx="288.6" cy="205.4" r="1.8"/><circle cx="437.6" cy="230.0" r="1.3"/><circle cx="296.8" cy="107.3" r="1.7"/><circle cx="804.4" cy="440.8" r="1.7"/><circle cx="303.8" cy="277.5" r="0.9"/><circle cx="655.9" cy="189.7" r="1.1"/><circle cx="882.7" cy="217.8" r="2.4"/><circle cx="556.2" cy="487.1" r="1.7"/><circle cx="160.8" cy="456.3" r="1.1"/><circle cx="366.9" cy="83.5" r="0.7"/><circle cx="330.8" cy="9.0" r="1.3"/><circle cx="765.1" cy="639.0" r="1.4"/><circle cx="97.1" cy="221.5" r="0.7"/><circle cx="195.7" cy="397.7" r="1.7"/><circle cx="28.2" cy="312.0" r="1.4"/><circle cx="358.1" cy="86.4" r="1.3"/><circle cx="92.0" cy="439.1" r="1.8"/><circle cx="565.9" cy="260.8" r="2.3"/><circle cx="331.9" cy="130.5" r="1.3"/><circle cx="821.5" cy="101.0" r="2.0"/><circle cx="844.4" cy="545.2" r="1.4"/><circle cx="405.1" cy="557.8" r="1.9"/><circle cx="726.1" cy="114.1" r="1.7"/><circle cx="664.4" cy="152.5" r="1.0"/><circle cx="757.1" cy="363.6" r="1.3"/><circle cx="437.3" cy="164.7" r="1.0"/><circle cx="95.9" cy="257.2" r="0.9"/><circle cx="807.1" cy="611.8" r="1.7"/><circle cx="81.2" cy="383.1" r="0.9"/><circle cx="334.4" cy="82.0" r="1.5"/><circle cx="67.7" cy="179.1" r="1.0"/><circle cx="419.5" cy="595.5" r="1.6"/><circle cx="704.2" cy="464.2" r="1.6"/><circle cx="61.1" cy="37.2" r="0.8"/><circle cx="464.6" cy="217.4" r="2.3"/><circle cx="179.6" cy="84.2" r="1.8"/><circle cx="546.1" cy="34.0" r="1.2"/><circle cx="399.9" cy="526.6" r="2.0"/><circle cx="786.1" cy="342.9" r="2.3"/><circle cx="423.3" cy="185.0" r="0.9"/><circle cx="748.7" cy="416.2" r="1.7"/><circle cx="880.4" cy="404.6" r="1.2"/><circle cx="625.4" cy="592.6" r="0.9"/><circle cx="849.2" cy="266.4" r="0.8"/><circle cx="457.3" cy="499.8" r="1.5"/><circle cx="242.4" cy="491.2" r="0.8"/><circle cx="604.1" cy="231.5" r="1.7"/><circle cx="456.2" cy="179.3" r="1.0"/><circle cx="738.4" cy="292.4" r="1.1"/><circle cx="533.0" cy="491.5" r="0.8"/><circle cx="412.5" cy="97.4" r="2.0"/><circle cx="40.8" cy="532.8" r="1.6"/><circle cx="464.6" cy="343.8" r="1.1"/><circle cx="406.9" cy="108.9" r="1.2"/><circle cx="536.3" cy="391.2" r="1.2"/><circle cx="554.5" cy="502.3" r="2.0"/><circle cx="2.9" cy="320.4" r="0.9"/><circle cx="737.3" cy="372.9" r="1.4"/><circle cx="548.8" cy="327.0" r="1.0"/><circle cx="822.7" cy="36.1" r="0.7"/><circle cx="264.3" cy="90.9" r="1.3"/><circle cx="554.1" cy="249.8" r="2.3"/><circle cx="294.0" cy="601.4" r="2.4"/><circle cx="493.4" cy="516.0" r="0.7"/><circle cx="840.2" cy="282.7" r="1.2"/><circle cx="829.3" cy="256.8" r="0.8"/><circle cx="24.6" cy="511.3" r="0.9"/><circle cx="572.3" cy="55.6" r="2.1"/><circle cx="872.3" cy="235.6" r="2.0"/><circle cx="808.3" cy="149.5" r="1.5"/><circle cx="898.2" cy="609.4" r="1.6"/><circle cx="493.9" cy="13.3" r="2.1"/><circle cx="851.9" cy="361.1" r="1.0"/><circle cx="113.7" cy="406.4" r="1.8"/><circle cx="538.1" cy="537.5" r="0.7"/><circle cx="5.8" cy="65.6" r="1.2"/><circle cx="44.3" cy="154.6" r="1.0"/><circle cx="731.6" cy="337.4" r="1.0"/><circle cx="456.1" cy="99.2" r="2.4"/><circle cx="81.7" cy="152.7" r="1.6"/><circle cx="804.6" cy="419.6" r="0.8"/><circle cx="548.0" cy="473.2" r="2.3"/><circle cx="574.1" cy="160.1" r="2.1"/><circle cx="629.2" cy="570.8" r="1.0"/><circle cx="753.4" cy="307.3" r="1.0"/><circle cx="228.9" cy="63.5" r="2.2"/><circle cx="128.5" cy="405.3" r="1.1"/><circle cx="225.0" cy="225.5" r="2.1"/><circle cx="59.7" cy="249.8" r="1.2"/><circle cx="437.0" cy="399.0" r="2.2"/><circle cx="572.0" cy="545.7" r="2.2"/><circle cx="732.1" cy="16.2" r="0.7"/><circle cx="471.4" cy="125.9" r="1.3"/><circle cx="476.7" cy="340.1" r="2.0"/><circle cx="695.2" cy="139.5" r="1.6"/><circle cx="425.4" cy="284.4" r="1.9"/><circle cx="642.9" cy="452.6" r="1.3"/><circle cx="75.5" cy="374.2" r="1.1"/><circle cx="279.3" cy="64.2" r="0.7"/><circle cx="399.5" cy="615.1" r="1.7"/><circle cx="228.2" cy="608.7" r="1.0"/><circle cx="607.8" cy="45.8" r="2.3"/><circle cx="819.9" cy="535.7" r="1.3"/><circle cx="407.1" cy="317.8" r="2.3"/><circle cx="523.8" cy="158.6" r="2.2"/><circle cx="379.5" cy="467.1" r="2.3"/><circle cx="695.8" cy="79.7" r="2.1"/><circle cx="406.3" cy="638.2" r="1.3"/><circle cx="159.4" cy="75.3" r="2.4"/><circle cx="387.2" cy="8.8" r="1.5"/><circle cx="863.1" cy="135.1" r="2.3"/><circle cx="897.0" cy="130.8" r="1.0"/><circle cx="130.7" cy="63.6" r="0.6"/><circle cx="196.2" cy="512.3" r="1.4"/><circle cx="370.5" cy="399.0" r="0.8"/><circle cx="699.3" cy="160.4" r="1.5"/><circle cx="196.7" cy="165.6" r="0.9"/><circle cx="353.1" cy="277.7" r="0.8"/><circle cx="749.2" cy="213.5" r="1.8"/><circle cx="171.1" cy="27.1" r="2.4"/><circle cx="215.6" cy="7.5" r="2.3"/><circle cx="383.2" cy="4.1" r="1.8"/><circle cx="304.2" cy="619.7" r="2.1"/><circle cx="595.5" cy="449.0" r="1.2"/><circle cx="825.7" cy="596.9" r="1.0"/><circle cx="46.4" cy="40.8" r="1.5"/><circle cx="556.7" cy="515.7" r="2.2"/><circle cx="345.0" cy="284.0" r="1.3"/><circle cx="815.4" cy="139.6" r="0.8"/><circle cx="176.7" cy="590.7" r="0.9"/><circle cx="895.4" cy="159.4" r="1.3"/><circle cx="162.7" cy="623.1" r="0.7"/><circle cx="145.1" cy="443.0" r="1.5"/><circle cx="351.9" cy="291.3" r="2.2"/><circle cx="134.5" cy="355.6" r="1.0"/><circle cx="447.4" cy="247.1" r="1.3"/><circle cx="281.1" cy="8.1" r="1.0"/><circle cx="659.7" cy="247.2" r="0.8"/><circle cx="96.4" cy="462.9" r="0.9"/></g>
  </g>
</svg>