<svg xmlns="http://www.w3.org/2000/svg" viewBox="0 0 900 640" width="900" height="640" role="img" aria-label="facility-play.svg">
  <defs>
    <linearGradient id="bg-facility-play-svg" x1="0" y1="0" x2="1" y2="1">
      <stop offset="0" stop-color="#A8331F"/><stop offset="1" stop-color="#D2452F"/>
    </linearGradient>
    <clipPath id="clip-facility-play-svg"><rect width="900" height="640"/></clipPath>
  </defs>
  <g clip-path="url(#clip-facility-play-svg)">
    <rect width="900" height="640" fill="url(#bg-facility-play-svg)"/>
    <circle cx="154" cy="579" r="166" fill="none" stroke="#FAF6EF" stroke-width="2.2" opacity=".14"/><circle cx="154" cy="579" r="275" fill="none" stroke="#FAF6EF" stroke-width="2.2" opacity=".14"/><circle cx="154" cy="579" r="384" fill="none" stroke="#FAF6EF" stroke-width="2.2" opacity=".14"/><circle cx="154" cy="579" r="493" fill="none" stroke="#FAF6EF" stroke-width="2.2" opacity=".14"/>
    <circle cx="715" cy="130" r="329" fill="#FAF6EF" opacity=".09"/>
    <g transform="translate(314.9 152.1) scale(2.9440)" opacity=".92">
      <g fill="none" stroke="#FAF6EF" stroke-width="6.2"
      stroke-linecap="round" stroke-linejoin="round">
      <path d="M30 40 h40"/><path d="M30 60 h40"/>
      <circle cx="22" cy="38" r="11"/><circle cx="22" cy="60" r="11"/>
      <circle cx="78" cy="38" r="11"/><circle cx="78" cy="60" r="11"/>
    </g>
    </g>
    <rect x="710" y="31" width="159" height="159" rx="33" fill="#E0A045" opacity=".95"/>
    <g transform="translate(736.8 57.6)"><g transform="scale(1.0560)">
      <path d="M18 93 C13 80 12 66 21 47 C26 33 40 25 55 27 C63 28 68 33 70 40 L88 44 C95 46 96 55 89 57 L75 58 C72 63 69 67 64 70 C55 76 44 78 37 84 C32 88 29 91 27 95 Z" fill="#FAF6EF"/>
      <path d="M28 36 C17 39 9 53 11 69 C12 78 21 82 27 76 C32 71 32 52 28 36 Z" fill="#A8331F"/>
      <circle cx="59" cy="41" r="3.6" fill="#A8331F"/>
      <circle cx="90" cy="51" r="3.4" fill="#A8331F"/>
    </g></g>
    
    <g fill="#FAF6EF" opacity="0.05"><circle cx="835.2" cy="110.7" r="2.3"/><circle cx="214.3" cy="297.4" r="2.2"/><circle cx="320.2" cy="325.2" r="0.9"/><circle cx="865.0" cy="630.6" r="0.9"/><circle cx="110.5" cy="302.4" r="1.5"/><circle cx="697.8" cy="219.4" r="1.7"/><circle cx="144.3" cy="136.1" r="0.7"/><circle cx="491.2" cy="360.2" r="1.7"/><circle cx="842.1" cy="196.1" r="1.2"/><circle cx="416.8" cy="605.4" r="1.2"/><circle cx="261.4" cy="273.1" r="1.8"/><circle cx="251.7" cy="110.7" r="1.9"/><circle cx="517.6" cy="370.6" r="0.6"/><circle cx="224.3" cy="65.1" r="1.3"/><circle cx="815.1" cy="632.9" r="2.1"/><circle cx="332.6" cy="362.1" r="2.2"/><circle cx="308.9" cy="255.4" r="1.9"/><circle cx="308.5" cy="303.3" r="1.3"/><circle cx="740.9" cy="331.8" r="0.8"/><circle cx="14.4" cy="411.2" r="0.8"/><circle cx="602.3" cy="142.3" r="1.6"/><circle cx="308.9" cy="419.0" r="0.8"/><circle cx="367.9" cy="420.4" r="1.1"/><circle cx="892.2" cy="634.5" r="2.3"/><circle cx="838.4" cy="602.5" r="1.6"/><circle cx="753.9" cy="259.8" r="0.7"/><circle cx="832.9" cy="588.4" r="1.1"/><circle cx="337.9" cy="150.0" r="1.9"/><circle cx="151.9" cy="520.6" r="0.7"/><circle cx="362.9" cy="500.6" r="1.5"/><circle cx="123.9" cy="19.1" r="1.8"/><circle cx="68.1" cy="180.4" r="1.7"/><circle cx="278.1" cy="23.5" r="2.0"/><circle cx="650.6" cy="391.7" r="0.8"/><circle cx="436.2" cy="617.1" r="1.5"/><circle cx="229.2" cy="599.6" r="1.2"/><circle cx="470.8" cy="105.0" r="2.2"/><circle cx="614.7" cy="339.8" r="1.5"/><circle cx="306.0" cy="294.1" r="1.5"/><circle cx="17.6" cy="456.2" r="2.0"/><circle cx="25.4" cy="86.7" r="1.9"/><circle cx="311.4" cy="90.4" r="1.9"/><circle cx="884.5" cy="226.3" r="1.7"/><circle cx="494.9" cy="356.1" r="1.7"/><circle cx="822.6" cy="551.6" r="2.2"/><circle cx="619.7" cy="487.4" r="2.0"/><circle cx="667.5" cy="438.6" r="2.0"/><circle cx="52.7" cy="108.3" r="1.8"/><circle cx="380.9" cy="146.8" r="1.8"/><circle cx="181.9" cy="484.3" r="1.2"/><circle cx="824.6" cy="201.9" r="2.3"/><circle cx="295.0" cy="500.9" r="0.8"/><circle cx="452.9" cy="228.6" r="2.2"/><circle cx="641.2" cy="365.2" r="0.8"/><circle cx="470.6" cy="152.9" r="0.8"/><circle cx="632.8" cy="349.4" r="2.4"/><circle cx="758.5" cy="27.9" r="2.3"/><circle cx="477.2" cy="634.4" r="1.2"/><circle cx="421.4" cy="444.6" r="1.1"/><circle cx="365.5" cy="215.3" r="1.2"/><circle cx="486.7" cy="320.4" r="2.2"/><circle cx="221.9" cy="154.4" r="1.1"/><circle cx="3.9" cy="210.8" r="1.2"/><circle cx="84.6" cy="331.3" r="0.8"/><circle cx="715.2" cy="603.1" r="1.7"/><circle cx="180.7" cy="97.6" r="0.7"/><circle cx="165.4" cy="543.3" r="2.0"/><circle cx="775.1" cy="234.6" r="1.6"/><circle cx="642.8" cy="422.2" r="1.8"/><circle cx="27.2" cy="637.2" r="1.6"/><circle cx="253.7" cy="208.6" r="2.0"/><circle cx="832.7" cy="24.0" r="1.0"/><circle cx="45.0" cy="413.5" r="1.7"/><circle cx="557.8" cy="121.5" r="1.4"/><circle cx="791.7" cy="207.9" r="1.0"/><circle cx="190.8" cy="511.9" r="1.0"/><circle cx="636.5" cy="392.0" r="2.1"/><circle cx="55.1" cy="192.2" r="2.3"/><circle cx="448.1" cy="55.0" r="0.8"/><circle cx="167.2" cy="422.4" r="1.2"/><circle cx="87.4" cy="168.1" r="2.0"/><circle cx="648.2" cy="307.0" r="1.1"/><circle cx="87.5" cy="71.2" r="2.2"/><circle cx="551.5" cy="7.0" r="2.0"/><circle cx="850.0" cy="253.9" r="2.2"/><circle cx="296.6" cy="221.3" r="1.3"/><circle cx="461.0" cy="242.0" r="1.0"/><circle cx="74.4" cy="189.9" r="1.6"/><circle cx="778.6" cy="449.0" r="1.5"/><circle cx="366.2" cy="101.7" r="1.8"/><circle cx="715.9" cy="225.2" r="2.0"/><circle cx="757.4" cy="225.6" r="0.6"/><circle cx="750.8" cy="327.9" r="0.7"/><circle cx="546.2" cy="402.6" r="1.7"/><circle cx="585.1" cy="349.0" r="0.7"/><circle cx="804.4" cy="422.3" r="2.2"/><circle cx="465.0" cy="436.0" r="1.5"/><circle cx="673.0" cy="57.7" r="1.2"/><circle cx="695.4" cy="227.1" r="1.5"/><circle cx="317.4" cy="493.6" r="0.8"/><circle cx="265.5" cy="40.8" r="0.7"/><circle cx="356.5" cy="603.5" r="0.9"/><circle cx="555.0" cy="476.2" r="1.9"/><circle cx="36.0" cy="16.8" r="1.9"/><circle cx="202.2" cy="498.9" r="1.8"/><circle cx="874.0" cy="251.8" r="2.0"/><circle cx="139.5" cy="170.5" r="1.3"/><circle cx="332.1" cy="347.1" r="1.1"/><circle cx="110.3" cy="303.3" r="1.5"/><circle cx="735.7" cy="366.0" r="1.4"/><circle cx="199.4" cy="465.6" r="2.2"/><circle cx="57.0" cy="180.6" r="1.9"/><circle cx="221.1" cy="44.7" r="1.0"/><circle cx="881.3" cy="95.1" r="0.8"/><circle cx="613.1" cy="96.0" r="2.1"/><circle cx="247.8" cy="304.0" r="1.5"/><circle cx="809.8" cy="595.8" r="1.0"/><circle cx="264.4" cy="60.2" r="0.9"/><circle cx="769.6" cy="157.7" r="1.6"/><circle cx="499.3" cy="186.7" r="0.7"/><circle cx="3.4" cy="160.7" r="2.2"/><circle cx="204.1" cy="181.7" r="2.3"/><circle cx="820.9" cy="46.6" r="2.0"/><circle cx="390.5" cy="278.6" r="2.1"/><circle cx="7.2" cy="339.5" r="2.2"/><circle cx="869.5" cy="507.2" r="1.5"/><circle cx="250.7" cy="616.4" r="0.6"/><circle cx="98.7" cy="182.4" r="2.3"/><circle cx="356.0" cy="563.5" r="0.7"/><circle cx="255.0" cy="175.0" r="0.6"/><circle cx="701.3" cy="503.3" r="1.7"/><circle cx="296.8" cy="417.1" r="1.9"/><circle cx="266.0" cy="286.6" r="0.6"/><circle cx="823.1" cy="19.9" r="0.9"/><circle cx="802.1" cy="28.2" r="0.9"/><circle cx="384.8" cy="639.3" r="2.2"/><circle cx="190.4" cy="428.8" r="1.0"/><circle cx="360.7" cy="552.0" r="1.0"/><circle cx="232.7" cy="579.5" r="1.0"/><circle cx="78.1" cy="337.6" r="1.2"/></g>
  </g>
</svg>