<svg xmlns="http://www.w3.org/2000/svg" viewBox="0 0 700 700" width="700" height="700" role="img" aria-label="Finished styling">
  <defs>
    <linearGradient id="bg-gallery-03-svg" x1="0" y1="0" x2="1" y2="1">
      <stop offset="0" stop-color="#D8500A"/><stop offset="1" stop-color="#F4681B"/>
    </linearGradient>
    <clipPath id="clip-gallery-03-svg"><rect width="700" height="700"/></clipPath>
  </defs>
  <g clip-path="url(#clip-gallery-03-svg)">
    <rect width="700" height="700" fill="url(#bg-gallery-03-svg)"/>
    <circle cx="54" cy="664" r="182" fill="none" stroke="#FFFFFF" stroke-width="2.5" opacity=".14"/><circle cx="54" cy="664" r="301" fill="none" stroke="#FFFFFF" stroke-width="2.5" opacity=".14"/><circle cx="54" cy="664" r="420" fill="none" stroke="#FFFFFF" stroke-width="2.5" opacity=".14"/><circle cx="54" cy="664" r="539" fill="none" stroke="#FFFFFF" stroke-width="2.5" opacity=".14"/>
    <circle cx="491" cy="234" r="399" fill="#FFFFFF" opacity=".09"/>
    <g transform="translate(196.6 166.3) scale(3.2200)" opacity=".92">
      <g fill="none" stroke="#FFFFFF" stroke-width="6.2" stroke-linecap="round" stroke-linejoin="round"><path d="M50 14 C54 38 62 46 86 50 C62 54 54 62 50 86 C46 62 38 54 14 50 C38 46 46 38 50 14 Z"/></g>
    </g>
    <rect x="522" y="63" width="116" height="116" rx="35" fill="#0A2472"/>
    <g transform="translate(521.5 63.0) scale(1.1550)"><path d="M50 81.5 C37.5 81.5 27.5 74.8 27.5 66.2 C27.5 58.3 37.5 53.5 50 53.5 C62.5 53.5 72.5 58.3 72.5 66.2 C72.5 74.8 62.5 81.5 50 81.5 Z" fill="#FFFFFF"/><ellipse cx="27.5" cy="43.5" rx="8.0" ry="10.6" fill="#FFFFFF" transform="rotate(-22 27.5 43.5)"/><ellipse cx="42.0" cy="34.5" rx="8.6" ry="11.6" fill="#FFFFFF" transform="rotate(-8 42.0 34.5)"/><ellipse cx="58.0" cy="34.5" rx="8.6" ry="11.6" fill="#FFFFFF" transform="rotate(8 58.0 34.5)"/><ellipse cx="72.5" cy="43.5" rx="8.0" ry="10.6" fill="#FFFFFF" transform="rotate(22 72.5 43.5)"/><path d="M50 75.5 C44.2 71.1 40.5 68.0 40.5 64.4 C40.5 61.7 42.6 60.1 44.9 60.1 C46.8 60.1 48.5 61.2 50 62.9 C51.5 61.2 53.2 60.1 55.1 60.1 C57.4 60.1 59.5 61.7 59.5 64.4 C59.5 68.0 55.8 71.1 50 75.5 Z" fill="#0A2472"/></g>
    <path d="M63 592 h91" stroke="#0A2472" stroke-width="7.7" stroke-linecap="round"/><text x="63" y="640" fill="#FFFFFF" opacity=".85" font-family="Inter, Helvetica Neue, Arial, sans-serif" font-size="36" font-weight="600" letter-spacing="4.2">FINISHED STYLING</text>
    <g fill="#FFFFFF" opacity="0.05"><circle cx="101.3" cy="342.9" r="1.5"/><circle cx="678.2" cy="568.4" r="2.0"/><circle cx="476.0" cy="109.6" r="2.2"/><circle cx="303.4" cy="407.9" r="0.8"/><circle cx="215.0" cy="589.2" r="0.8"/><circle cx="59.7" cy="228.0" r="1.2"/><circle cx="343.9" cy="339.3" r="0.9"/><circle cx="1.2" cy="250.0" r="1.1"/><circle cx="377.1" cy="392.2" r="1.9"/><circle cx="308.8" cy="269.0" r="1.8"/><circle cx="634.6" cy="463.4" r="0.6"/><circle cx="209.3" cy="674.6" r="2.3"/><circle cx="208.9" cy="149.0" r="0.6"/><circle cx="86.5" cy="50.5" r="2.4"/><circle cx="662.5" cy="236.0" r="0.6"/><circle cx="641.2" cy="434.5" r="2.2"/><circle cx="210.7" cy="602.3" r="2.0"/><circle cx="470.3" cy="468.8" r="1.9"/><circle cx="322.5" cy="667.6" r="0.8"/><circle cx="285.2" cy="259.1" r="1.5"/><circle cx="588.0" cy="52.6" r="1.3"/><circle cx="312.2" cy="263.9" r="1.7"/><circle cx="488.6" cy="438.3" r="1.5"/><circle cx="256.5" cy="692.2" r="2.1"/><circle cx="465.2" cy="58.1" r="1.3"/><circle cx="485.9" cy="132.4" r="1.4"/><circle cx="304.0" cy="97.7" r="2.1"/><circle cx="621.8" cy="195.5" r="0.9"/><circle cx="180.0" cy="500.9" r="1.0"/><circle cx="517.8" cy="638.2" r="0.8"/><circle cx="485.4" cy="488.7" r="1.7"/><circle cx="457.9" cy="202.4" r="0.9"/><circle cx="638.9" cy="128.9" r="2.2"/><circle cx="561.3" cy="272.7" r="1.5"/><circle cx="201.5" cy="161.4" r="2.1"/><circle cx="53.5" cy="144.9" r="2.4"/><circle cx="249.4" cy="411.8" r="1.7"/><circle cx="481.0" cy="589.0" r="2.0"/><circle cx="201.3" cy="239.0" r="2.4"/><circle cx="636.5" cy="301.1" r="1.1"/><circle cx="275.0" cy="575.7" r="1.0"/><circle cx="28.3" cy="76.2" r="1.0"/><circle cx="620.3" cy="105.0" r="0.8"/><circle cx="515.7" cy="621.7" r="2.4"/><circle cx="627.4" cy="647.5" r="2.1"/><circle cx="665.8" cy="329.1" r="2.2"/><circle cx="45.8" cy="175.2" r="2.3"/><circle cx="298.8" cy="352.4" r="1.8"/><circle cx="274.6" cy="37.5" r="2.1"/><circle cx="147.8" cy="627.4" r="1.6"/><circle cx="368.8" cy="691.2" r="1.2"/><circle cx="535.7" cy="151.1" r="2.0"/><circle cx="204.8" cy="604.5" r="1.4"/><circle cx="603.1" cy="667.8" r="1.0"/><circle cx="236.3" cy="687.9" r="1.4"/><circle cx="56.5" cy="172.8" r="1.4"/><circle cx="282.4" cy="420.8" r="1.8"/><circle cx="82.0" cy="44.8" r="1.0"/><circle cx="671.2" cy="148.6" r="2.0"/><circle cx="503.4" cy="248.7" r="2.2"/><circle cx="584.2" cy="585.9" r="2.4"/><circle cx="348.5" cy="27.7" r="2.3"/><circle cx="16.7" cy="114.7" r="1.2"/><circle cx="271.7" cy="388.3" r="0.7"/><circle cx="158.6" cy="464.6" r="1.0"/><circle cx="213.5" cy="488.3" r="1.6"/><circle cx="590.5" cy="651.3" r="0.6"/><circle cx="72.0" cy="699.3" r="1.3"/><circle cx="358.1" cy="44.4" r="2.2"/><circle cx="355.1" cy="400.9" r="2.0"/><circle cx="523.2" cy="12.4" r="2.2"/><circle cx="576.4" cy="505.0" r="2.2"/><circle cx="673.6" cy="215.9" r="2.1"/><circle cx="295.6" cy="617.0" r="1.7"/><circle cx="466.4" cy="495.7" r="1.0"/><circle cx="202.8" cy="161.0" r="0.9"/><circle cx="227.3" cy="576.1" r="1.1"/><circle cx="166.9" cy="493.2" r="1.8"/><circle cx="222.2" cy="663.5" r="2.0"/><circle cx="362.4" cy="62.5" r="1.5"/><circle cx="128.6" cy="434.7" r="2.2"/><circle cx="201.6" cy="77.3" r="1.6"/><circle cx="552.6" cy="27.5" r="2.0"/><circle cx="638.0" cy="652.1" r="1.0"/><circle cx="0.8" cy="457.6" r="1.3"/><circle cx="600.4" cy="121.7" r="1.9"/><circle cx="656.0" cy="406.9" r="1.6"/><circle cx="160.3" cy="450.4" r="2.3"/><circle cx="459.4" cy="607.8" r="0.6"/><circle cx="282.5" cy="37.8" r="1.9"/><circle cx="441.4" cy="673.8" r="1.0"/><circle cx="684.1" cy="589.5" r="1.9"/><circle cx="597.5" cy="590.9" r="1.3"/><circle cx="308.4" cy="689.2" r="0.8"/><circle cx="59.3" cy="494.4" r="1.5"/><circle cx="198.0" cy="84.3" r="1.0"/><circle cx="488.4" cy="401.3" r="1.5"/><circle cx="461.4" cy="598.2" r="0.7"/><circle cx="596.9" cy="48.2" r="1.0"/><circle cx="582.0" cy="44.3" r="1.0"/><circle cx="368.6" cy="656.3" r="2.3"/><circle cx="653.6" cy="373.8" r="2.2"/><circle cx="384.8" cy="365.6" r="1.6"/><circle cx="251.1" cy="423.9" r="0.7"/><circle cx="292.8" cy="491.8" r="1.7"/><circle cx="196.7" cy="498.7" r="1.0"/><circle cx="348.0" cy="627.1" r="2.0"/><circle cx="255.8" cy="467.9" r="1.8"/><circle cx="89.5" cy="524.0" r="1.8"/><circle cx="359.3" cy="466.4" r="1.1"/><circle cx="668.6" cy="513.9" r="1.9"/><circle cx="280.9" cy="190.2" r="1.0"/><circle cx="494.2" cy="472.4" r="2.3"/><circle cx="440.6" cy="202.4" r="0.8"/><circle cx="448.9" cy="227.6" r="0.9"/><circle cx="294.2" cy="521.6" r="1.2"/><circle cx="614.2" cy="372.0" r="0.9"/><circle cx="437.4" cy="56.4" r="1.8"/><circle cx="67.7" cy="124.3" r="0.9"/><circle cx="188.3" cy="589.2" r="2.2"/><circle cx="347.4" cy="537.2" r="2.0"/><circle cx="424.0" cy="584.8" r="2.2"/><circle cx="457.4" cy="338.3" r="1.8"/><circle cx="312.1" cy="249.3" r="2.0"/><circle cx="196.6" cy="235.9" r="1.2"/><circle cx="287.1" cy="677.5" r="1.9"/><circle cx="268.6" cy="76.7" r="1.8"/><circle cx="132.0" cy="414.4" r="1.3"/><circle cx="332.6" cy="337.3" r="0.9"/><circle cx="666.2" cy="181.1" r="1.9"/><circle cx="275.4" cy="544.0" r="1.3"/><circle cx="688.3" cy="323.3" r="0.9"/><circle cx="539.5" cy="513.8" r="1.8"/><circle cx="464.5" cy="59.5" r="2.1"/><circle cx="233.4" cy="409.7" r="1.8"/><circle cx="83.4" cy="317.8" r="1.5"/><circle cx="99.0" cy="257.3" r="1.9"/><circle cx="242.1" cy="452.3" r="0.7"/><circle cx="334.6" cy="257.7" r="2.4"/><circle cx="94.8" cy="641.2" r="1.0"/></g>
  </g>
</svg>