<svg xmlns="http://www.w3.org/2000/svg" viewBox="0 0 700 700" width="700" height="700" role="img" aria-label="Transformation">
  <defs>
    <linearGradient id="bg-gallery-01-svg" x1="0" y1="0" x2="1" y2="1">
      <stop offset="0" stop-color="#0F1E2E"/><stop offset="1" stop-color="#1B3348"/>
    </linearGradient>
    <clipPath id="clip-gallery-01-svg"><rect width="700" height="700"/></clipPath>
  </defs>
  <g clip-path="url(#clip-gallery-01-svg)">
    <rect width="700" height="700" fill="url(#bg-gallery-01-svg)"/>
    <circle cx="65" cy="669" r="182" fill="none" stroke="#FAF6EF" stroke-width="2.5" opacity=".14"/><circle cx="65" cy="669" r="301" fill="none" stroke="#FAF6EF" stroke-width="2.5" opacity=".14"/><circle cx="65" cy="669" r="420" fill="none" stroke="#FAF6EF" stroke-width="2.5" opacity=".14"/><circle cx="65" cy="669" r="539" fill="none" stroke="#FAF6EF" stroke-width="2.5" opacity=".14"/>
    <circle cx="519" cy="233" r="349" fill="#FAF6EF" opacity=".09"/>
    <g transform="translate(196.6 166.3) scale(3.2200)" opacity=".92">
      <g fill="none" stroke="#FAF6EF" stroke-width="6.2"
      stroke-linecap="round" stroke-linejoin="round">
      <path d="M22 14 L66 62"/><path d="M78 14 L34 62"/>
      <circle cx="26" cy="76" r="12"/><circle cx="74" cy="76" r="12"/>
      <path d="M34 68 L50 52 L66 68"/>
    </g>
    </g>
    <rect x="492" y="34" width="174" height="174" rx="36" fill="#D2452F" opacity=".95"/>
    <g transform="translate(521.5 63.0)"><g transform="scale(1.1550)">
      <path d="M18 93 C13 80 12 66 21 47 C26 33 40 25 55 27 C63 28 68 33 70 40 L88 44 C95 46 96 55 89 57 L75 58 C72 63 69 67 64 70 C55 76 44 78 37 84 C32 88 29 91 27 95 Z" fill="#FAF6EF"/>
      <path d="M28 36 C17 39 9 53 11 69 C12 78 21 82 27 76 C32 71 32 52 28 36 Z" fill="#0F1E2E"/>
      <circle cx="59" cy="41" r="3.6" fill="#0F1E2E"/>
      <circle cx="90" cy="51" r="3.4" fill="#0F1E2E"/>
    </g></g>
    <path d="M63 592 h91" stroke="#D2452F" stroke-width="7.7" stroke-linecap="round"/><text x="63" y="640" fill="#FAF6EF" opacity=".85" font-family="Inter, Helvetica Neue, Arial, sans-serif" font-size="36" font-weight="600" letter-spacing="4.2">TRANSFORMATION</text>
    <g fill="#FAF6EF" opacity="0.05"><circle cx="190.0" cy="379.3" r="1.9"/><circle cx="671.0" cy="258.4" r="1.6"/><circle cx="262.3" cy="385.1" r="2.1"/><circle cx="695.0" cy="650.0" r="2.3"/><circle cx="38.1" cy="168.9" r="2.3"/><circle cx="394.0" cy="101.3" r="1.7"/><circle cx="654.8" cy="161.9" r="1.2"/><circle cx="121.1" cy="683.9" r="1.0"/><circle cx="180.9" cy="55.3" r="0.8"/><circle cx="11.1" cy="2.8" r="1.5"/><circle cx="208.4" cy="257.4" r="1.6"/><circle cx="220.4" cy="519.1" r="1.0"/><circle cx="347.9" cy="258.7" r="1.9"/><circle cx="315.8" cy="194.4" r="2.3"/><circle cx="546.6" cy="242.6" r="1.8"/><circle cx="352.5" cy="28.6" r="1.0"/><circle cx="459.4" cy="8.1" r="0.7"/><circle cx="187.1" cy="336.5" r="0.6"/><circle cx="685.0" cy="692.4" r="2.0"/><circle cx="598.4" cy="637.8" r="2.1"/><circle cx="293.6" cy="110.5" r="1.4"/><circle cx="451.6" cy="589.1" r="2.0"/><circle cx="51.1" cy="105.6" r="1.3"/><circle cx="181.8" cy="237.8" r="2.0"/><circle cx="372.8" cy="453.4" r="2.4"/><circle cx="323.5" cy="408.6" r="2.4"/><circle cx="395.9" cy="565.9" r="2.0"/><circle cx="300.8" cy="194.9" r="1.6"/><circle cx="204.7" cy="270.5" r="0.6"/><circle cx="680.1" cy="667.3" r="0.7"/><circle cx="144.6" cy="195.6" r="1.2"/><circle cx="206.5" cy="245.3" r="1.7"/><circle cx="115.2" cy="84.4" r="1.9"/><circle cx="130.3" cy="554.5" r="0.9"/><circle cx="689.0" cy="77.4" r="1.4"/><circle cx="600.9" cy="574.7" r="2.0"/><circle cx="493.5" cy="650.1" r="0.9"/><circle cx="595.5" cy="652.2" r="0.8"/><circle cx="421.5" cy="609.2" r="2.2"/><circle cx="690.0" cy="191.8" r="1.9"/><circle cx="225.3" cy="234.4" r="2.2"/><circle cx="161.7" cy="227.6" r="2.1"/><circle cx="444.0" cy="381.6" r="2.0"/><circle cx="697.5" cy="289.8" r="1.7"/><circle cx="19.9" cy="454.9" r="0.6"/><circle cx="226.3" cy="310.6" r="1.0"/><circle cx="451.9" cy="687.9" r="1.7"/><circle cx="206.6" cy="623.9" r="2.3"/><circle cx="226.3" cy="512.7" r="2.4"/><circle cx="662.0" cy="385.9" r="1.8"/><circle cx="306.4" cy="171.5" r="0.9"/><circle cx="526.9" cy="3.6" r="1.6"/><circle cx="205.4" cy="582.9" r="1.6"/><circle cx="524.0" cy="160.0" r="0.7"/><circle cx="57.9" cy="494.9" r="1.5"/><circle cx="112.2" cy="202.9" r="1.1"/><circle cx="87.4" cy="328.7" r="0.9"/><circle cx="553.7" cy="188.0" r="1.7"/><circle cx="71.1" cy="82.6" r="1.9"/><circle cx="281.5" cy="294.5" r="1.9"/><circle cx="159.8" cy="601.2" r="1.2"/><circle cx="517.4" cy="67.7" r="0.7"/><circle cx="469.3" cy="294.1" r="2.0"/><circle cx="75.7" cy="602.2" r="1.3"/><circle cx="646.3" cy="123.7" r="1.6"/><circle cx="647.3" cy="632.0" r="1.8"/><circle cx="687.1" cy="190.1" r="1.5"/><circle cx="44.9" cy="86.8" r="0.7"/><circle cx="326.5" cy="618.6" r="1.0"/><circle cx="590.5" cy="426.0" r="0.9"/><circle cx="437.9" cy="517.3" r="0.9"/><circle cx="205.8" cy="699.5" r="1.7"/><circle cx="625.7" cy="132.9" r="1.1"/><circle cx="70.4" cy="619.8" r="1.5"/><circle cx="117.9" cy="431.8" r="1.8"/><circle cx="251.2" cy="300.2" r="2.0"/><circle cx="204.0" cy="176.2" r="0.8"/><circle cx="349.5" cy="8.9" r="0.7"/><circle cx="54.3" cy="613.5" r="1.6"/><circle cx="88.7" cy="629.0" r="1.8"/><circle cx="189.1" cy="72.2" r="0.7"/><circle cx="202.5" cy="210.6" r="2.0"/><circle cx="211.6" cy="319.6" r="1.2"/><circle cx="247.0" cy="651.4" r="1.2"/><circle cx="165.2" cy="102.6" r="1.7"/><circle cx="322.5" cy="71.4" r="1.0"/><circle cx="537.7" cy="385.0" r="1.2"/><circle cx="95.4" cy="521.0" r="0.9"/><circle cx="53.0" cy="41.6" r="1.5"/><circle cx="203.7" cy="151.0" r="0.8"/><circle cx="62.9" cy="245.8" r="1.9"/><circle cx="328.0" cy="595.8" r="1.8"/><circle cx="422.3" cy="237.8" r="1.5"/><circle cx="401.6" cy="81.8" r="0.8"/><circle cx="83.9" cy="111.5" r="2.3"/><circle cx="573.4" cy="494.7" r="1.0"/><circle cx="653.4" cy="437.5" r="1.5"/><circle cx="229.9" cy="13.9" r="2.4"/><circle cx="37.1" cy="293.7" r="1.8"/><circle cx="237.2" cy="694.6" r="1.2"/><circle cx="119.5" cy="142.9" r="0.8"/><circle cx="437.1" cy="193.0" r="1.1"/><circle cx="148.5" cy="117.4" r="1.1"/><circle cx="86.1" cy="137.0" r="1.5"/><circle cx="392.6" cy="530.1" r="1.2"/><circle cx="295.8" cy="268.0" r="0.9"/><circle cx="598.6" cy="472.1" r="0.9"/><circle cx="603.3" cy="227.1" r="2.0"/><circle cx="698.5" cy="603.2" r="1.5"/><circle cx="410.3" cy="311.1" r="1.5"/><circle cx="641.8" cy="560.6" r="1.9"/><circle cx="593.8" cy="449.6" r="1.9"/><circle cx="340.7" cy="21.9" r="1.3"/><circle cx="79.0" cy="329.4" r="0.7"/><circle cx="402.2" cy="285.9" r="1.0"/><circle cx="650.0" cy="573.4" r="1.3"/><circle cx="368.1" cy="189.6" r="1.2"/><circle cx="616.3" cy="644.5" r="1.4"/><circle cx="234.2" cy="680.1" r="1.3"/><circle cx="194.5" cy="401.5" r="1.5"/><circle cx="572.5" cy="223.9" r="1.1"/><circle cx="478.3" cy="356.6" r="2.2"/><circle cx="207.9" cy="421.7" r="2.2"/><circle cx="660.7" cy="156.8" r="2.2"/><circle cx="616.5" cy="602.9" r="1.0"/><circle cx="580.4" cy="669.0" r="1.8"/><circle cx="596.6" cy="10.2" r="1.1"/><circle cx="354.3" cy="3.0" r="1.3"/><circle cx="235.1" cy="219.8" r="2.3"/><circle cx="421.6" cy="394.6" r="0.8"/><circle cx="73.0" cy="469.3" r="2.4"/><circle cx="18.9" cy="479.1" r="0.7"/><circle cx="334.9" cy="91.7" r="2.0"/><circle cx="63.2" cy="515.6" r="2.0"/><circle cx="144.0" cy="23.8" r="1.3"/><circle cx="58.1" cy="181.9" r="1.2"/><circle cx="69.4" cy="588.8" r="0.8"/><circle cx="650.2" cy="198.1" r="0.7"/><circle cx="90.3" cy="21.9" r="2.4"/><circle cx="495.9" cy="281.5" r="2.2"/></g>
  </g>
</svg>