<svg xmlns="http://www.w3.org/2000/svg" viewBox="0 0 700 700" width="700" height="700" role="img" aria-label="Happy client">
  <defs>
    <linearGradient id="bg-gallery-07-svg" x1="0" y1="0" x2="1" y2="1">
      <stop offset="0" stop-color="#0F1E2E"/><stop offset="1" stop-color="#1B3348"/>
    </linearGradient>
    <clipPath id="clip-gallery-07-svg"><rect width="700" height="700"/></clipPath>
  </defs>
  <g clip-path="url(#clip-gallery-07-svg)">
    <rect width="700" height="700" fill="url(#bg-gallery-07-svg)"/>
    <circle cx="108" cy="619" r="182" fill="none" stroke="#FAF6EF" stroke-width="2.5" opacity=".14"/><circle cx="108" cy="619" r="301" fill="none" stroke="#FAF6EF" stroke-width="2.5" opacity=".14"/><circle cx="108" cy="619" r="420" fill="none" stroke="#FAF6EF" stroke-width="2.5" opacity=".14"/><circle cx="108" cy="619" r="539" fill="none" stroke="#FAF6EF" stroke-width="2.5" opacity=".14"/>
    <circle cx="537" cy="152" r="309" fill="#FAF6EF" opacity=".09"/>
    <g transform="translate(196.6 166.3) scale(3.2200)" opacity=".92">
      <g fill="none" stroke="#FAF6EF" stroke-width="6.2"
      stroke-linecap="round" stroke-linejoin="round">
      <path d="M50 14 C54 38 62 46 86 50 C62 54 54 62 50 86 C46 62 38 54 14 50 C38 46 46 38 50 14 Z"/>
    </g>
    </g>
    <rect x="492" y="34" width="174" height="174" rx="36" fill="#D2452F" opacity=".95"/>
    <g transform="translate(521.5 63.0)"><g transform="scale(1.1550)">
      <path d="M18 93 C13 80 12 66 21 47 C26 33 40 25 55 27 C63 28 68 33 70 40 L88 44 C95 46 96 55 89 57 L75 58 C72 63 69 67 64 70 C55 76 44 78 37 84 C32 88 29 91 27 95 Z" fill="#FAF6EF"/>
      <path d="M28 36 C17 39 9 53 11 69 C12 78 21 82 27 76 C32 71 32 52 28 36 Z" fill="#0F1E2E"/>
      <circle cx="59" cy="41" r="3.6" fill="#0F1E2E"/>
      <circle cx="90" cy="51" r="3.4" fill="#0F1E2E"/>
    </g></g>
    <path d="M63 592 h91" stroke="#D2452F" stroke-width="7.7" stroke-linecap="round"/><text x="63" y="640" fill="#FAF6EF" opacity=".85" font-family="Inter, Helvetica Neue, Arial, sans-serif" font-size="36" font-weight="600" letter-spacing="4.2">HAPPY CLIENT</text>
    <g fill="#FAF6EF" opacity="0.05"><circle cx="554.1" cy="21.7" r="2.1"/><circle cx="222.2" cy="8.4" r="0.7"/><circle cx="351.6" cy="442.1" r="2.1"/><circle cx="572.0" cy="71.8" r="2.2"/><circle cx="67.1" cy="573.8" r="1.4"/><circle cx="406.6" cy="531.6" r="1.0"/><circle cx="43.5" cy="619.6" r="0.9"/><circle cx="199.4" cy="59.0" r="1.3"/><circle cx="205.7" cy="335.7" r="2.3"/><circle cx="345.9" cy="299.5" r="2.0"/><circle cx="482.0" cy="142.5" r="2.1"/><circle cx="555.2" cy="180.0" r="1.5"/><circle cx="453.8" cy="256.2" r="1.8"/><circle cx="429.2" cy="304.7" r="2.0"/><circle cx="115.3" cy="492.8" r="2.0"/><circle cx="467.9" cy="631.1" r="2.0"/><circle cx="316.0" cy="38.7" r="0.8"/><circle cx="9.8" cy="125.7" r="2.0"/><circle cx="641.2" cy="575.7" r="2.2"/><circle cx="377.0" cy="571.1" r="1.8"/><circle cx="680.2" cy="37.8" r="2.0"/><circle cx="231.5" cy="168.2" r="2.1"/><circle cx="359.2" cy="540.4" r="1.2"/><circle cx="265.0" cy="503.1" r="1.8"/><circle cx="365.2" cy="371.6" r="1.9"/><circle cx="500.3" cy="491.9" r="2.0"/><circle cx="27.2" cy="653.5" r="1.1"/><circle cx="581.3" cy="226.5" r="2.0"/><circle cx="178.8" cy="254.8" r="1.0"/><circle cx="202.9" cy="215.2" r="1.4"/><circle cx="234.8" cy="298.4" r="2.2"/><circle cx="134.0" cy="51.9" r="2.3"/><circle cx="20.2" cy="194.6" r="0.7"/><circle cx="541.2" cy="290.2" r="2.4"/><circle cx="176.1" cy="401.7" r="1.0"/><circle cx="414.3" cy="478.8" r="0.8"/><circle cx="37.3" cy="388.0" r="1.3"/><circle cx="149.3" cy="403.0" r="2.0"/><circle cx="525.9" cy="255.6" r="1.3"/><circle cx="646.6" cy="30.3" r="0.8"/><circle cx="307.4" cy="699.1" r="1.9"/><circle cx="365.9" cy="254.1" r="1.1"/><circle cx="118.7" cy="174.3" r="2.1"/><circle cx="478.6" cy="54.5" r="1.1"/><circle cx="645.1" cy="581.3" r="0.9"/><circle cx="201.0" cy="416.3" r="1.6"/><circle cx="89.5" cy="175.3" r="1.5"/><circle cx="107.6" cy="518.3" r="0.8"/><circle cx="699.7" cy="171.9" r="1.5"/><circle cx="492.8" cy="277.5" r="1.7"/><circle cx="104.0" cy="344.4" r="1.4"/><circle cx="240.4" cy="519.8" r="2.3"/><circle cx="117.3" cy="108.2" r="1.2"/><circle cx="291.6" cy="495.8" r="2.2"/><circle cx="52.7" cy="345.8" r="1.3"/><circle cx="281.0" cy="588.4" r="1.1"/><circle cx="169.0" cy="155.7" r="1.5"/><circle cx="608.6" cy="119.7" r="0.8"/><circle cx="379.6" cy="546.1" r="2.4"/><circle cx="400.9" cy="263.9" r="1.1"/><circle cx="610.2" cy="98.8" r="1.9"/><circle cx="106.9" cy="316.4" r="1.7"/><circle cx="237.7" cy="616.7" r="1.5"/><circle cx="535.3" cy="364.2" r="1.3"/><circle cx="634.6" cy="88.1" r="0.7"/><circle cx="272.6" cy="572.4" r="2.1"/><circle cx="563.9" cy="285.8" r="1.8"/><circle cx="545.1" cy="611.7" r="2.3"/><circle cx="680.1" cy="488.6" r="2.1"/><circle cx="107.4" cy="595.2" r="1.2"/><circle cx="321.8" cy="10.5" r="1.5"/><circle cx="327.3" cy="106.6" r="2.2"/><circle cx="655.0" cy="538.7" r="0.7"/><circle cx="75.7" cy="699.4" r="1.1"/><circle cx="102.3" cy="581.2" r="0.7"/><circle cx="418.0" cy="494.9" r="1.2"/><circle cx="396.3" cy="170.2" r="1.8"/><circle cx="255.0" cy="642.2" r="0.7"/><circle cx="594.7" cy="332.3" r="1.6"/><circle cx="28.9" cy="294.0" r="1.4"/><circle cx="335.7" cy="664.2" r="1.5"/><circle cx="219.0" cy="284.4" r="1.8"/><circle cx="590.8" cy="276.4" r="1.3"/><circle cx="230.7" cy="596.5" r="0.7"/><circle cx="186.8" cy="569.4" r="0.9"/><circle cx="386.9" cy="524.4" r="1.4"/><circle cx="349.1" cy="310.0" r="2.4"/><circle cx="407.0" cy="197.5" r="2.1"/><circle cx="451.1" cy="481.2" r="2.4"/><circle cx="34.3" cy="98.4" r="2.4"/><circle cx="11.8" cy="201.1" r="1.7"/><circle cx="93.7" cy="250.5" r="0.6"/><circle cx="605.7" cy="327.6" r="1.0"/><circle cx="588.1" cy="337.7" r="2.2"/><circle cx="7.2" cy="421.2" r="1.7"/><circle cx="412.2" cy="171.2" r="1.7"/><circle cx="490.7" cy="206.3" r="2.0"/><circle cx="604.7" cy="268.0" r="2.2"/><circle cx="481.7" cy="271.1" r="2.3"/><circle cx="138.3" cy="429.7" r="0.9"/><circle cx="289.3" cy="394.3" r="0.9"/><circle cx="526.1" cy="2.5" r="1.3"/><circle cx="268.5" cy="513.9" r="1.3"/><circle cx="688.0" cy="123.4" r="1.7"/><circle cx="11.8" cy="536.6" r="0.9"/><circle cx="631.5" cy="420.0" r="1.8"/><circle cx="91.0" cy="602.2" r="1.7"/><circle cx="0.3" cy="5.6" r="2.0"/><circle cx="341.1" cy="615.8" r="0.9"/><circle cx="657.5" cy="192.4" r="1.2"/><circle cx="237.3" cy="238.7" r="2.3"/><circle cx="489.2" cy="550.1" r="2.1"/><circle cx="275.3" cy="587.5" r="1.9"/><circle cx="152.9" cy="374.7" r="0.9"/><circle cx="372.7" cy="108.9" r="1.0"/><circle cx="173.5" cy="329.5" r="2.0"/><circle cx="469.3" cy="696.9" r="0.7"/><circle cx="652.0" cy="117.4" r="2.2"/><circle cx="228.8" cy="402.2" r="1.3"/><circle cx="267.5" cy="686.5" r="2.4"/><circle cx="165.7" cy="185.1" r="1.4"/><circle cx="47.8" cy="72.0" r="1.6"/><circle cx="243.3" cy="508.6" r="1.5"/><circle cx="41.1" cy="639.6" r="1.9"/><circle cx="129.2" cy="74.8" r="1.0"/><circle cx="114.7" cy="327.0" r="1.4"/><circle cx="78.9" cy="421.8" r="1.7"/><circle cx="250.0" cy="633.9" r="1.9"/><circle cx="81.7" cy="214.3" r="1.6"/><circle cx="236.8" cy="631.3" r="2.0"/><circle cx="672.0" cy="686.1" r="1.4"/><circle cx="266.6" cy="525.9" r="2.3"/><circle cx="373.5" cy="143.6" r="1.2"/><circle cx="537.9" cy="411.0" r="1.7"/><circle cx="542.1" cy="90.2" r="1.0"/><circle cx="158.5" cy="286.0" r="0.9"/><circle cx="400.7" cy="600.3" r="0.7"/><circle cx="467.0" cy="350.7" r="1.8"/><circle cx="55.7" cy="253.9" r="1.4"/><circle cx="155.3" cy="17.3" r="1.9"/></g>
  </g>
</svg>